<?xml version="1.0" encoding="UTF-8"?> <svg xmlns="http://www.w3.org/2000/svg" width="29" height="29" viewBox="0 0 29 29" fill="none"><g clip-path="url(#clip0_2839_5717)"><path d="M10.4072 7.89729L9.48163 6.97167V5.0001C9.48163 4.40462 9.96604 3.92021 10.5615 3.92021H19.3549C19.9504 3.92021 20.4348 4.40462 20.4348 5.0001V13.7935C20.4348 13.8459 20.4255 13.8984 20.4194 13.9478H24.3687C24.9642 13.9478 25.4486 14.4322 25.4486 15.0276V22.9386L24.523 22.013V15.0276C24.523 14.9413 24.4551 14.8734 24.3687 14.8734H17.3833L16.4577 13.9478H19.3549C19.4413 13.9478 19.5092 13.8799 19.5092 13.7935V5.0001C19.5092 4.91371 19.4413 4.84583 19.3549 4.84583H10.5615C10.4751 4.84583 10.4072 4.91371 10.4072 5.0001V7.89729ZM18.093 9.30423C18.3491 9.30423 18.5558 9.09751 18.5558 8.84142V6.68781C18.5558 6.43172 18.3491 6.225 18.093 6.225C17.8369 6.225 17.6302 6.43172 17.6302 6.68781V8.84142C17.6302 9.09751 17.8369 9.30423 18.093 9.30423ZM17.6302 10.7389C17.6302 10.995 17.8369 11.2018 18.093 11.2018C18.3491 11.2018 18.5558 10.995 18.5558 10.7389V10.3162C18.5558 10.0602 18.3491 9.85343 18.093 9.85343C17.8369 9.85343 17.6302 10.0602 17.6302 10.3162V10.7389ZM15.5753 23.9753C15.4889 23.9753 15.421 23.9074 15.421 23.821V16.8357L14.4954 15.9101V23.821C14.4954 23.9074 14.4275 23.9753 14.3411 23.9753H5.54774C5.46135 23.9753 5.39347 23.9074 5.39347 23.821V15.0276C5.39347 14.9413 5.46135 14.8734 5.54774 14.8734H13.4587L12.5331 13.9478H10.5615C10.4751 13.9478 10.4072 13.8799 10.4072 13.7935V11.8219L9.48163 10.8963V13.7935C9.48163 13.8459 9.49088 13.8984 9.49706 13.9478H5.54774C4.95226 13.9478 4.46785 14.4322 4.46785 15.0276V23.821C4.46785 24.4165 4.95226 24.9009 5.54774 24.9009H14.3411C14.5695 24.9009 14.7823 24.8269 14.9582 24.7035C15.1341 24.8269 15.347 24.9009 15.5753 24.9009H23.4863L22.5606 23.9753H15.5753ZM23.5696 16.7154C23.5696 16.4593 23.3628 16.2526 23.1068 16.2526C22.8507 16.2526 22.6439 16.4593 22.6439 16.7154V18.8721C22.6439 19.1281 22.8507 19.3349 23.1068 19.3349C23.3628 19.3349 23.5696 19.1281 23.5696 18.8721V16.7154ZM23.1068 19.881C22.9124 19.881 22.7488 20.0013 22.6779 20.1679L23.5048 20.9948C23.5449 20.9269 23.5665 20.8498 23.5665 20.7665V20.3438C23.5665 20.0877 23.3598 19.881 23.1037 19.881H23.1068ZM13.542 16.7154C13.542 16.4593 13.3353 16.2526 13.0792 16.2526C12.8231 16.2526 12.6164 16.4593 12.6164 16.7154V18.8721C12.6164 19.1281 12.8231 19.3349 13.0792 19.3349C13.3353 19.3349 13.542 19.1281 13.542 18.8721V16.7154ZM13.0792 19.881C12.8231 19.881 12.6164 20.0877 12.6164 20.3438V20.7665C12.6164 21.0226 12.8231 21.2293 13.0792 21.2293C13.3353 21.2293 13.542 21.0226 13.542 20.7665V20.3438C13.542 20.0877 13.3353 19.881 13.0792 19.881ZM28.8209 27.6192L1.74962 0.547867C1.66014 0.45839 1.53981 0.412109 1.42257 0.412109C1.30532 0.412109 1.18499 0.45839 1.09551 0.547867C0.913475 0.72682 0.913475 1.02302 1.09551 1.20197L28.1699 28.2764C28.2594 28.3658 28.3797 28.4121 28.4969 28.4121C28.6142 28.4121 28.7345 28.3658 28.824 28.2764C29.006 28.0943 29.006 27.8012 28.824 27.6222L28.8209 27.6192Z" fill="#C2A899"></path></g><defs><clipPath id="clip0_2839_5717"><rect width="28" height="28" fill="white" transform="translate(0.958984 0.412109)"></rect></clipPath></defs></svg> 